# xmcd
#
# Track frame offsets: 
#        150
#        21917
#        35202
#        49020
#        68522
#        88640
#        102247
#        122262
#        135417
#
# Disc length: 2094 seconds
#
# Revision: 2
# Processed by: cddbd v1.5.1PL0 Copyright (c) Steve Scherf et al.
# Submitted via: ExactAudioCopy v0.90b4
#
DISCID=6d082c09
DTITLE=Muddy Waters - Muddy Waters At Newport 1960 [Re-Issue]
DYEAR=2001
DGENRE=Blues
TTITLE0=I Got My Brand On You
TTITLE1=I'm Your Hoochie Coochie Man
TTITLE2=Baby, Please Don't Go
TTITLE3=Soon Forgotten
TTITLE4=Tiger In Your Tank
TTITLE5=I Feel So Good
TTITLE6=I've Got My Mojo Working
TTITLE7=I've Got My Mojo Working Pt.2
TTITLE8=Goodbye Newport Blues
EXTD=
EXTT0=
EXTT1=
EXTT2=
EXTT3=
EXTT4=
EXTT5=
EXTT6=
EXTT7=
EXTT8=
PLAYORDER=
